<?xml version="1.0" encoding="iso-8859-1"?>
<!-- Generator: Adobe Illustrator 16.0.0, SVG Export Plug-In . SVG Version: 6.00 Build 0)  -->
<!DOCTYPE svg PUBLIC "-//W3C//DTD SVG 1.1//EN" "http://www.w3.org/Graphics/SVG/1.1/DTD/svg11.dtd">
<svg version="1.1" id="Capa_1" xmlns="http://www.w3.org/2000/svg" xmlns:xlink="http://www.w3.org/1999/xlink" x="0px" y="0px"
	 width="623.979px" height="623.979px" viewBox="0 0 623.979 623.979" style="enable-background:new 0 0 623.979 623.979;"
	 xml:space="preserve">
<g>
	<g id="Shape_22">
		<g>
			<path d="M19.293,231.407h412.435v97.069c0,5.428,3.246,10.337,8.209,12.413c1.649,0.691,3.379,1.024,5.096,1.024
				c3.459,0,6.864-1.371,9.405-3.938l156.007-157.51c5.202-5.242,5.202-13.743,0-18.999L454.438,3.956
				c-3.805-3.858-9.539-5.029-14.501-2.914c-4.963,2.076-8.209,6.985-8.209,12.413v97.068H19.293
				c-7.344,0-13.304,6.014-13.304,13.438v94.022C5.989,225.407,11.95,231.407,19.293,231.407z M32.598,137.385h412.435
				c7.344,0,13.304-6.013,13.304-13.437v-78.07l123.891,125.087L458.337,296.053v-78.07c0-7.424-5.96-13.438-13.304-13.438H32.598
				V137.385z M604.685,392.589H192.25v-97.068c0-5.428-3.246-10.337-8.208-12.413c-4.989-2.115-10.71-0.944-14.502,2.914
				L13.533,443.545c-5.202,5.241-5.202,13.743,0,18.998L169.54,620.054c2.541,2.567,5.947,3.925,9.406,3.925
				c1.716,0,3.446-0.333,5.096-1.024c4.962-2.062,8.208-6.972,8.208-12.4v-97.068h412.435c7.345,0,13.305-6.014,13.305-13.438
				v-94.021C617.989,398.603,612.029,392.589,604.685,392.589z M591.381,486.624H178.946c-7.344,0-13.304,6.014-13.304,13.438v78.07
				L41.751,453.044l123.89-125.088v78.07c0,7.424,5.96,13.438,13.304,13.438h412.435V486.624z"/>
		</g>
	</g>
</g>
</svg>
